<mxfile host="app.diagrams.net" modified="2020-11-06T16:09:15.723Z" agent="5.0 (Windows NT 10.0; WOW64) AppleWebKit/537.36 (KHTML, like Gecko) Chrome/78.0.3904.108 Safari/537.36" etag="vMBKHYBbubUAhG3VvFqa" version="13.9.2" type="github">
  <diagram name="Page-1" id="929967ad-93f9-6ef4-fab6-5d389245f69c">
    <mxGraphModel dx="1422" dy="731" grid="1" gridSize="10" guides="1" tooltips="1" connect="1" arrows="1" fold="1" page="1" pageScale="1.5" pageWidth="1169" pageHeight="826" background="none" math="0" shadow="0">
      <root>
        <mxCell id="0" style=";html=1;" />
        <mxCell id="1" style=";html=1;" parent="0" />
        <mxCell id="1672d66443f91eb5-23" value="observer partern" style="text;strokeColor=none;fillColor=none;html=1;fontSize=24;fontStyle=1;verticalAlign=middle;align=center;" parent="1" vertex="1">
          <mxGeometry x="120" y="40" width="1510" height="40" as="geometry" />
        </mxCell>
        <mxCell id="FIdg6tHWCg-E3nkloSnL-13" value="ConcreteSubject" style="swimlane;fontStyle=1;align=center;verticalAlign=top;childLayout=stackLayout;horizontal=1;startSize=26;horizontalStack=0;resizeParent=1;resizeParentMax=0;resizeLast=0;collapsible=1;marginBottom=0;" vertex="1" parent="1">
          <mxGeometry x="296.69" y="460" width="246.62" height="86" as="geometry" />
        </mxCell>
        <mxCell id="FIdg6tHWCg-E3nkloSnL-14" value="+ field: type" style="text;strokeColor=none;fillColor=none;align=left;verticalAlign=top;spacingLeft=4;spacingRight=4;overflow=hidden;rotatable=0;points=[[0,0.5],[1,0.5]];portConstraint=eastwest;" vertex="1" parent="FIdg6tHWCg-E3nkloSnL-13">
          <mxGeometry y="26" width="246.62" height="26" as="geometry" />
        </mxCell>
        <mxCell id="FIdg6tHWCg-E3nkloSnL-15" value="" style="line;strokeWidth=1;fillColor=none;align=left;verticalAlign=middle;spacingTop=-1;spacingLeft=3;spacingRight=3;rotatable=0;labelPosition=right;points=[];portConstraint=eastwest;" vertex="1" parent="FIdg6tHWCg-E3nkloSnL-13">
          <mxGeometry y="52" width="246.62" height="8" as="geometry" />
        </mxCell>
        <mxCell id="FIdg6tHWCg-E3nkloSnL-16" value="+ method(type): type" style="text;strokeColor=none;fillColor=none;align=left;verticalAlign=top;spacingLeft=4;spacingRight=4;overflow=hidden;rotatable=0;points=[[0,0.5],[1,0.5]];portConstraint=eastwest;" vertex="1" parent="FIdg6tHWCg-E3nkloSnL-13">
          <mxGeometry y="60" width="246.62" height="26" as="geometry" />
        </mxCell>
        <mxCell id="FIdg6tHWCg-E3nkloSnL-21" value="Subject" style="swimlane;fontStyle=3;align=center;verticalAlign=top;childLayout=stackLayout;horizontal=1;startSize=26;horizontalStack=0;resizeParent=1;resizeParentMax=0;resizeLast=0;collapsible=1;marginBottom=0;" vertex="1" parent="1">
          <mxGeometry x="320" y="195" width="200" height="86" as="geometry" />
        </mxCell>
        <mxCell id="FIdg6tHWCg-E3nkloSnL-22" value="+ observerList: List&lt;Observer&gt;" style="text;strokeColor=none;fillColor=none;align=left;verticalAlign=top;spacingLeft=4;spacingRight=4;overflow=hidden;rotatable=0;points=[[0,0.5],[1,0.5]];portConstraint=eastwest;" vertex="1" parent="FIdg6tHWCg-E3nkloSnL-21">
          <mxGeometry y="26" width="200" height="26" as="geometry" />
        </mxCell>
        <mxCell id="FIdg6tHWCg-E3nkloSnL-23" value="" style="line;strokeWidth=1;fillColor=none;align=left;verticalAlign=middle;spacingTop=-1;spacingLeft=3;spacingRight=3;rotatable=0;labelPosition=right;points=[];portConstraint=eastwest;" vertex="1" parent="FIdg6tHWCg-E3nkloSnL-21">
          <mxGeometry y="52" width="200" height="8" as="geometry" />
        </mxCell>
        <mxCell id="FIdg6tHWCg-E3nkloSnL-24" value="+ method(type): type" style="text;strokeColor=none;fillColor=none;align=left;verticalAlign=top;spacingLeft=4;spacingRight=4;overflow=hidden;rotatable=0;points=[[0,0.5],[1,0.5]];portConstraint=eastwest;" vertex="1" parent="FIdg6tHWCg-E3nkloSnL-21">
          <mxGeometry y="60" width="200" height="26" as="geometry" />
        </mxCell>
        <mxCell id="FIdg6tHWCg-E3nkloSnL-29" value="Observer" style="swimlane;fontStyle=3;align=center;verticalAlign=top;childLayout=stackLayout;horizontal=1;startSize=26;horizontalStack=0;resizeParent=1;resizeParentMax=0;resizeLast=0;collapsible=1;marginBottom=0;" vertex="1" parent="1">
          <mxGeometry x="830" y="195" width="160" height="86" as="geometry" />
        </mxCell>
        <mxCell id="FIdg6tHWCg-E3nkloSnL-30" value="+ field: type" style="text;strokeColor=none;fillColor=none;align=left;verticalAlign=top;spacingLeft=4;spacingRight=4;overflow=hidden;rotatable=0;points=[[0,0.5],[1,0.5]];portConstraint=eastwest;" vertex="1" parent="FIdg6tHWCg-E3nkloSnL-29">
          <mxGeometry y="26" width="160" height="26" as="geometry" />
        </mxCell>
        <mxCell id="FIdg6tHWCg-E3nkloSnL-31" value="" style="line;strokeWidth=1;fillColor=none;align=left;verticalAlign=middle;spacingTop=-1;spacingLeft=3;spacingRight=3;rotatable=0;labelPosition=right;points=[];portConstraint=eastwest;" vertex="1" parent="FIdg6tHWCg-E3nkloSnL-29">
          <mxGeometry y="52" width="160" height="8" as="geometry" />
        </mxCell>
        <mxCell id="FIdg6tHWCg-E3nkloSnL-32" value="+ method(type): type" style="text;strokeColor=none;fillColor=none;align=left;verticalAlign=top;spacingLeft=4;spacingRight=4;overflow=hidden;rotatable=0;points=[[0,0.5],[1,0.5]];portConstraint=eastwest;" vertex="1" parent="FIdg6tHWCg-E3nkloSnL-29">
          <mxGeometry y="60" width="160" height="26" as="geometry" />
        </mxCell>
        <mxCell id="FIdg6tHWCg-E3nkloSnL-35" value="" style="endArrow=open;endFill=1;endSize=12;html=1;entryX=-0.012;entryY=0.186;entryDx=0;entryDy=0;entryPerimeter=0;" edge="1" parent="1" target="FIdg6tHWCg-E3nkloSnL-29">
          <mxGeometry width="160" relative="1" as="geometry">
            <mxPoint x="520" y="210" as="sourcePoint" />
            <mxPoint x="780" y="220" as="targetPoint" />
          </mxGeometry>
        </mxCell>
      </root>
    </mxGraphModel>
  </diagram>
</mxfile>
